<svg xmlns="http://www.w3.org/2000/svg" width="8339" height="2200" fill="none"><path fill="#fff" d="M1099.86 2200c-83.18 0-166.18-9.33-246.618-27.82-200.956-46.12-384.618-147.88-531.126-294.39-154.012-154.01-257.967-347.74-300.611-560.32C7.229 1246.28 0 1173.16 0 1100.05c0-156.304 32.212-307.479 95.628-449.137 54.907-122.715 131.135-233.26 226.58-328.614C468.624 175.7 652.286 73.94 853.242 27.819 933.68 9.334 1016.68 0 1099.95 0c125.92 0 249.55 21.139 367.33 62.868 153.19 54.265 295.12 143.945 410.51 259.34 95.36 95.354 171.58 205.99 226.58 328.613 63.42 141.658 95.63 292.834 95.63 449.129 0 73.12-7.23 146.33-21.5 217.43-42.65 212.58-146.6 406.31-300.62 560.32-115.39 115.4-257.32 205.08-410.51 259.34-117.78 41.73-241.41 62.87-367.32 62.87l-.19.09z"/><path fill="#030303" d="M425.614 1774.29c124.362 124.37 282.858 214.5 460.297 255.23 68.815 15.74 140.379 24.06 213.949 24.06 111.64 0 218.8-19.21 318.46-54.45 135.25-47.86 256.5-125.46 355.88-224.84 130.22-130.22 223.01-297.95 260.62-485.64 12.27-60.95 18.67-124.09 18.67-188.6 0-138.642-29.65-270.417-82.82-389.289-47.86-106.884-114.75-203.245-196.47-284.964-99.38-99.38-220.63-176.889-355.88-224.84-99.57-35.232-206.72-54.449-318.46-54.449-73.57 0-145.134 8.327-213.949 24.067-177.439 40.631-335.935 130.86-460.297 255.222-81.719 81.719-148.613 178.08-196.473 284.964-53.259 118.872-82.817 250.647-82.817 389.289 0 64.6 6.406 127.65 18.668 188.6 37.703 187.69 130.403 355.42 260.622 485.64z"/><path fill="#fff" stroke="#231F20" stroke-miterlimit="10" stroke-width=".75" d="M949.325 1270.9c-326.601-96.55-688.982-220.18-497.268-570.847 135.344-237.195 389.926-397.247 680.933-397.247 432.47 0 784.42 353.688 784.42 788.454 0 257.97-132.87 557.12-315.07 631.33-444.19 152.27-319.83-353.23-652.924-451.69h-.091z"/><path fill="#030303" d="M1015.33 1236.85c-251.747-74.03-531.128-168.84-383.339-437.789 104.322-181.923 300.52-304.73 524.899-304.73 333.38 0 604.7 271.237 604.7 604.699 0 197.85-102.4 427.27-242.86 484.18-342.44 116.77-246.53-270.87-503.31-346.45l-.09.09z"/><path fill="#fff" stroke="#231F20" stroke-miterlimit="10" stroke-width=".75" d="M1090.35 1209.58c-163.989-48.22-346.002-109.99-249.734-285.144 67.992-118.505 195.744-198.485 341.884-198.485 217.15 0 393.86 176.706 393.86 393.859 0 128.85-66.71 278.37-158.22 315.44-223.11 76.04-160.6-176.44-327.88-225.67h.09z"/><path fill="#030303" d="M1156.67 1173.44c-89.86-26.45-189.607-60.31-136.81-156.3 37.25-64.977 107.26-108.81 187.42-108.81 119.05 0 215.87 96.82 215.87 215.87 0 70.65-36.6 152.55-86.75 172.87-122.26 41.72-88.03-96.73-179.64-123.63h-.09z"/><path fill="#000" d="M2424.6 704.19h838.86v136.53H2424.6V704.19zm338.25 119.31h163.59V1500h-163.59V823.5zm1056.11 473.55h154.98c-6.56 41.82-24.19 79.13-52.89 111.93-27.88 32.8-66.01 58.63-114.39 77.49-48.38 18.86-107.42 28.29-177.12 28.29-77.9 0-146.78-12.3-206.64-36.9-59.86-25.42-106.6-61.91-140.22-109.47-33.62-47.56-50.43-104.96-50.43-172.2s16.4-124.64 49.2-172.2c32.8-48.38 78.31-85.28 136.53-110.7 59.04-25.42 127.92-38.13 206.64-38.13 80.36 0 147.19 12.71 200.49 38.13 53.3 25.42 92.66 63.96 118.08 115.62 26.24 50.84 37.31 116.03 33.21 195.57h-583.02c4.1 31.16 15.58 59.45 34.44 84.87 19.68 25.42 45.92 45.51 78.72 60.27 33.62 14.76 73.39 22.14 119.31 22.14 50.84 0 93.07-8.61 126.69-25.83 34.44-18.04 56.58-41 66.42-68.88zm-201.72-300.12c-59.04 0-107.01 13.12-143.91 39.36-36.9 25.42-60.68 56.99-71.34 94.71h415.74c-4.1-41-23.78-73.39-59.04-97.17-34.44-24.6-81.59-36.9-141.45-36.9zm1203.84 261.99c-4.1 53.3-21.32 99.22-51.66 137.76-29.52 38.54-70.52 68.06-123 88.56-52.48 19.68-114.8 29.52-186.96 29.52-75.44 0-143.09-11.89-202.95-35.67-59.04-24.6-105.78-60.27-140.22-107.01-33.62-47.56-50.43-106.19-50.43-175.89 0-69.7 16.81-128.33 50.43-175.89 34.44-47.56 81.18-83.64 140.22-108.24 59.86-24.6 127.51-36.9 202.95-36.9 72.16 0 134.07 10.25 185.73 30.75 51.66 19.68 92.25 48.38 121.77 86.1 30.34 37.72 47.97 83.23 52.89 136.53h-146.37c-13.94-41-39.77-72.98-77.49-95.94-37.72-22.96-83.23-34.44-136.53-34.44-42.64 0-81.59 7.38-116.85 22.14-34.44 14.76-62.32 36.9-83.64 66.42-20.5 28.7-30.75 65.19-30.75 109.47 0 43.46 10.25 79.95 30.75 109.47 20.5 28.7 48.38 50.43 83.64 65.19 35.26 13.94 74.21 20.91 116.85 20.91 57.4 0 104.14-11.48 140.22-34.44 36.9-22.96 61.91-55.76 75.03-98.4h146.37zm74.47-370.23h474.78v124.23h-474.78V888.69zm157.44-167.28h159.9V1500h-159.9V721.41zm770.92 793.35c-77.08 0-145.14-12.3-204.18-36.9-58.22-24.6-103.73-60.27-136.53-107.01-32.8-47.56-49.2-105.78-49.2-174.66s16.4-127.1 49.2-174.66c32.8-48.38 78.31-84.87 136.53-109.47 59.04-24.6 127.1-36.9 204.18-36.9 77.08 0 144.32 12.3 201.72 36.9 58.22 24.6 103.73 61.09 136.53 109.47 32.8 47.56 49.2 105.78 49.2 174.66s-16.4 127.1-49.2 174.66c-32.8 46.74-78.31 82.41-136.53 107.01-57.4 24.6-124.64 36.9-201.72 36.9zm0-123c42.64 0 80.77-7.38 114.39-22.14 34.44-15.58 61.5-37.72 81.18-66.42 19.68-29.52 29.52-65.19 29.52-107.01 0-41.82-9.84-77.49-29.52-107.01-19.68-30.34-46.33-53.3-79.95-68.88-33.62-15.58-72.16-23.37-115.62-23.37-42.64 0-81.18 7.79-115.62 23.37-34.44 15.58-61.91 38.13-82.41 67.65-19.68 29.52-29.52 65.6-29.52 108.24 0 41.82 9.84 77.49 29.52 107.01 19.68 28.7 46.74 50.84 81.18 66.42 34.44 14.76 73.39 22.14 116.85 22.14zm505.65-503.07h159.9V1500h-159.9V888.69zm444.03-13.53c37.72 0 72.57 4.92 104.55 14.76 31.98 9.84 59.86 25.01 83.64 45.51 23.78 20.5 42.23 46.74 55.35 78.72 13.12 31.16 19.68 68.47 19.68 111.93V1500h-159.9v-345.63c0-51.66-12.71-89.38-38.13-113.16-24.6-24.6-65.19-36.9-121.77-36.9-42.64 0-81.18 8.2-115.62 24.6-34.44 16.4-62.32 37.31-83.64 62.73-21.32 24.6-33.62 50.43-36.9 77.49l-1.23-62.73c4.1-28.7 13.53-56.58 28.29-83.64 14.76-27.06 34.44-51.66 59.04-73.8 25.42-22.96 55.35-41 89.79-54.12 34.44-13.12 73.39-19.68 116.85-19.68zm592.07-254.61v140.22h-185.73V620.55h185.73zm-173.43 268.14h159.9V1500h-159.9V888.69zm1044.98 370.23c-4.1 53.3-21.32 99.22-51.66 137.76-29.52 38.54-70.52 68.06-123 88.56-52.48 19.68-114.8 29.52-186.96 29.52-75.44 0-143.09-11.89-202.95-35.67-59.04-24.6-105.78-60.27-140.22-107.01-33.62-47.56-50.43-106.19-50.43-175.89 0-69.7 16.81-128.33 50.43-175.89 34.44-47.56 81.18-83.64 140.22-108.24 59.86-24.6 127.51-36.9 202.95-36.9 72.16 0 134.07 10.25 185.73 30.75 51.66 19.68 92.25 48.38 121.77 86.1 30.34 37.72 47.97 83.23 52.89 136.53h-146.37c-13.94-41-39.77-72.98-77.49-95.94-37.72-22.96-83.23-34.44-136.53-34.44-42.64 0-81.59 7.38-116.85 22.14-34.44 14.76-62.32 36.9-83.64 66.42-20.5 28.7-30.75 65.19-30.75 109.47 0 43.46 10.25 79.95 30.75 109.47 20.5 28.7 48.38 50.43 83.64 65.19 35.26 13.94 74.21 20.91 116.85 20.91 57.4 0 104.14-11.48 140.22-34.44 36.9-22.96 61.91-55.76 75.03-98.4h146.37z"/></svg>